STARTFONT 2.1
FONT -DEC-Terminal-Bold-R-Wide--14-140-75-75-C-120-iso8859-5
SIZE 14 75 75
FONTBOUNDINGBOX 12 15 0 -3

STARTPROPERTIES 24
FOUNDRY "Monotype"
FAMILY_NAME "VT"
WEIGHT_NAME "Bold"
SLANT "R"
SETWIDTH_NAME "Wide"
ADD_STYLE_NAME ""
PIXEL_SIZE 14
POINT_SIZE 140
RESOLUTION_X 75
RESOLUTION_Y 75
SPACING "C"
AVERAGE_WIDTH 120
CHARSET_REGISTRY "iso8859"
CHARSET_ENCODING "5"
FACE_NAME "VT Wide Bold ISO Latin Cyrillic"
_DEC_DEVICE_FONTNAMES "PS=vt-widebold-isolatincyrillic"
COPYRIGHT "Copyright (c) 1993 Monotype Typography Ltd."
CAP_HEIGHT 8
X_HEIGHT 6
WEIGHT 10
QUAD_WIDTH 12
DEFAULT_CHAR 160
FONT_DESCENT 3
FONT_ASCENT 12
ENDPROPERTIES

CHARS 191

STARTCHAR space
ENCODING 32
SWIDTH 723 0
DWIDTH 12 0
BBX 12 15 0 -3
BITMAP
0000
0000
0000
0000
0000
0000
0000
0000
0000
0000
0000
0000
0000
0000
0000
ENDCHAR

STARTCHAR exclam
ENCODING 33
SWIDTH 723 0
DWIDTH 12 0
BBX 12 15 0 -3
BITMAP
0000
0000
0F00
0F00
0F00
0F00
0F00
0F00
0F00
0000
0F00
0F00
0000
0000
0000
ENDCHAR

STARTCHAR quotedbl
ENCODING 34
SWIDTH 723 0
DWIDTH 12 0
BBX 12 15 0 -3
BITMAP
0000
0000
79E0
79E0
79E0
0000
0000
0000
0000
0000
0000
0000
0000
0000
0000
ENDCHAR

STARTCHAR numbersign
ENCODING 35
SWIDTH 723 0
DWIDTH 12 0
BBX 12 15 0 -3
BITMAP
0000
0000
0000
1980
7FE0
7FE0
1980
1980
7FE0
7FE0
1980
0000
0000
0000
0000
ENDCHAR

STARTCHAR dollar
ENCODING 36
SWIDTH 723 0
DWIDTH 12 0
BBX 12 15 0 -3
BITMAP
0000
0000
0600
0600
3FC0
79E0
7800
3FC0
01E0
79E0
3FC0
0600
0600
0000
0000
ENDCHAR

STARTCHAR percent
ENCODING 37
SWIDTH 723 0
DWIDTH 12 0
BBX 12 15 0 -3
BITMAP
0000
0000
0000
3C70
6EE0
3DC0
0380
0700
0E00
1DE0
3B70
71E0
0000
0000
0000
ENDCHAR

STARTCHAR ampersand
ENCODING 38
SWIDTH 723 0
DWIDTH 12 0
BBX 12 15 0 -3
BITMAP
0000
0000
0000
1F00
3B80
3B80
1F00
3FE0
7BC0
7180
7BC0
3FE0
0000
0000
0000
ENDCHAR

STARTCHAR quoteright
ENCODING 39
SWIDTH 723 0
DWIDTH 12 0
BBX 12 15 0 -3
BITMAP
0000
0000
1E00
1E00
0E00
3C00
0000
0000
0000
0000
0000
0000
0000
0000
0000
ENDCHAR

STARTCHAR parenleft
ENCODING 40
SWIDTH 723 0
DWIDTH 12 0
BBX 12 15 0 -3
BITMAP
0000
0000
0F80
1E00
3C00
7800
7800
7800
7800
3C00
1E00
0F80
0000
0000
0000
ENDCHAR

STARTCHAR parenright
ENCODING 41
SWIDTH 723 0
DWIDTH 12 0
BBX 12 15 0 -3
BITMAP
0000
0000
1F00
0780
03C0
01E0
01E0
01E0
01E0
03C0
0780
1F00
0000
0000
0000
ENDCHAR

STARTCHAR asterisk
ENCODING 42
SWIDTH 723 0
DWIDTH 12 0
BBX 12 15 0 -3
BITMAP
0000
0000
0000
0000
0600
6660
1F80
1F80
1F80
6660
0600
0000
0000
0000
0000
ENDCHAR

STARTCHAR plus
ENCODING 43
SWIDTH 723 0
DWIDTH 12 0
BBX 12 15 0 -3
BITMAP
0000
0000
0000
0000
0000
0F00
0F00
7FE0
7FE0
0F00
0F00
0000
0000
0000
0000
ENDCHAR

STARTCHAR comma
ENCODING 44
SWIDTH 723 0
DWIDTH 12 0
BBX 12 15 0 -3
BITMAP
0000
0000
0000
0000
0000
0000
0000
0000
0000
0000
1E00
1E00
0E00
1C00
0000
ENDCHAR

STARTCHAR minus
ENCODING 45
SWIDTH 723 0
DWIDTH 12 0
BBX 12 15 0 -3
BITMAP
0000
0000
0000
0000
0000
0000
0000
3FC0
3FC0
0000
0000
0000
0000
0000
0000
ENDCHAR

STARTCHAR period
ENCODING 46
SWIDTH 723 0
DWIDTH 12 0
BBX 12 15 0 -3
BITMAP
0000
0000
0000
0000
0000
0000
0000
0000
0000
0000
0F00
0F00
0000
0000
0000
ENDCHAR

STARTCHAR slash
ENCODING 47
SWIDTH 723 0
DWIDTH 12 0
BBX 12 15 0 -3
BITMAP
0000
0000
0000
00F0
01E0
03C0
0780
0F00
1E00
3C00
7800
F000
0000
0000
0000
ENDCHAR

STARTCHAR zero
ENCODING 48
SWIDTH 723 0
DWIDTH 12 0
BBX 12 15 0 -3
BITMAP
0000
0000
0000
0F00
3FC0
79E0
79E0
79E0
79E0
79E0
3FC0
0F00
0000
0000
0000
ENDCHAR

STARTCHAR one
ENCODING 49
SWIDTH 723 0
DWIDTH 12 0
BBX 12 15 0 -3
BITMAP
0000
0000
0000
0700
0F00
3F00
0F00
0F00
0F00
0F00
0F00
7FE0
0000
0000
0000
ENDCHAR

STARTCHAR two
ENCODING 50
SWIDTH 723 0
DWIDTH 12 0
BBX 12 15 0 -3
BITMAP
0000
0000
0000
3FC0
79E0
79E0
01E0
07E0
1FC0
7F00
7C00
7FE0
0000
0000
0000
ENDCHAR

STARTCHAR three
ENCODING 51
SWIDTH 723 0
DWIDTH 12 0
BBX 12 15 0 -3
BITMAP
0000
0000
0000
3FC0
79E0
79E0
01E0
07C0
01E0
79E0
79E0
3FC0
0000
0000
0000
ENDCHAR

STARTCHAR four
ENCODING 52
SWIDTH 723 0
DWIDTH 12 0
BBX 12 15 0 -3
BITMAP
0000
0000
0000
0380
0780
0F80
1F80
3F80
7780
6780
7FE0
0780
0000
0000
0000
ENDCHAR

STARTCHAR five
ENCODING 53
SWIDTH 723 0
DWIDTH 12 0
BBX 12 15 0 -3
BITMAP
0000
0000
0000
7FE0
7800
7800
7FC0
79E0
01E0
79E0
79E0
3FC0
0000
0000
0000
ENDCHAR

STARTCHAR six
ENCODING 54
SWIDTH 723 0
DWIDTH 12 0
BBX 12 15 0 -3
BITMAP
0000
0000
0000
3FC0
79E0
7800
7FC0
79E0
79E0
79E0
7FE0
3FC0
0000
0000
0000
ENDCHAR

STARTCHAR seven
ENCODING 55
SWIDTH 723 0
DWIDTH 12 0
BBX 12 15 0 -3
BITMAP
0000
0000
0000
7FE0
01E0
01E0
03C0
0780
0F00
1E00
1E00
1E00
0000
0000
0000
ENDCHAR

STARTCHAR eight
ENCODING 56
SWIDTH 723 0
DWIDTH 12 0
BBX 12 15 0 -3
BITMAP
0000
0000
0000
3FC0
79E0
79E0
79E0
3FC0
79E0
79E0
79E0
3FC0
0000
0000
0000
ENDCHAR

STARTCHAR nine
ENCODING 57
SWIDTH 723 0
DWIDTH 12 0
BBX 12 15 0 -3
BITMAP
0000
0000
0000
3FC0
79E0
79E0
79E0
79E0
3FE0
01E0
79E0
3FC0
0000
0000
0000
ENDCHAR

STARTCHAR colon
ENCODING 58
SWIDTH 723 0
DWIDTH 12 0
BBX 12 15 0 -3
BITMAP
0000
0000
0000
0000
0000
0F00
0F00
0000
0000
0000
0F00
0F00
0000
0000
0000
ENDCHAR

STARTCHAR semicolon
ENCODING 59
SWIDTH 723 0
DWIDTH 12 0
BBX 12 15 0 -3
BITMAP
0000
0000
0000
0000
0000
0F00
0F00
0000
0000
0000
0F00
0F00
3E00
0000
0000
ENDCHAR

STARTCHAR less
ENCODING 60
SWIDTH 723 0
DWIDTH 12 0
BBX 12 15 0 -3
BITMAP
0000
0000
0000
03C0
0780
0F00
1E00
3C00
1E00
0F00
0780
03C0
0000
0000
0000
ENDCHAR

STARTCHAR equal
ENCODING 61
SWIDTH 723 0
DWIDTH 12 0
BBX 12 15 0 -3
BITMAP
0000
0000
0000
0000
0000
3FC0
3FC0
0000
3FC0
3FC0
0000
0000
0000
0000
0000
ENDCHAR

STARTCHAR greater
ENCODING 62
SWIDTH 723 0
DWIDTH 12 0
BBX 12 15 0 -3
BITMAP
0000
0000
0000
3C00
1E00
0F00
0780
03C0
0780
0F00
1E00
3C00
0000
0000
0000
ENDCHAR

STARTCHAR question
ENCODING 63
SWIDTH 723 0
DWIDTH 12 0
BBX 12 15 0 -3
BITMAP
0000
0000
3FC0
79E0
79E0
01E0
03C0
0F00
1C00
0000
1E00
1E00
0000
0000
0000
ENDCHAR

STARTCHAR at
ENCODING 64
SWIDTH 723 0
DWIDTH 12 0
BBX 12 15 0 -3
BITMAP
0000
0000
0000
3FC0
7860
7860
79E0
7B60
7BE0
79C0
7800
3FE0
0000
0000
0000
ENDCHAR

STARTCHAR A
ENCODING 65
SWIDTH 723 0
DWIDTH 12 0
BBX 12 15 0 -3
BITMAP
0000
0000
0000
0F00
3FC0
79E0
79E0
79E0
7FE0
79E0
79E0
79E0
0000
0000
0000
ENDCHAR

STARTCHAR B
ENCODING 66
SWIDTH 723 0
DWIDTH 12 0
BBX 12 15 0 -3
BITMAP
0000
0000
0000
7FC0
79E0
79E0
79E0
7FC0
79E0
79E0
79E0
7FC0
0000
0000
0000
ENDCHAR

STARTCHAR C
ENCODING 67
SWIDTH 723 0
DWIDTH 12 0
BBX 12 15 0 -3
BITMAP
0000
0000
0000
3FC0
79E0
79E0
7800
7800
7800
79E0
79E0
3FC0
0000
0000
0000
ENDCHAR

STARTCHAR D
ENCODING 68
SWIDTH 723 0
DWIDTH 12 0
BBX 12 15 0 -3
BITMAP
0000
0000
0000
7FC0
79E0
79E0
79E0
79E0
79E0
79E0
79E0
7FC0
0000
0000
0000
ENDCHAR

STARTCHAR E
ENCODING 69
SWIDTH 723 0
DWIDTH 12 0
BBX 12 15 0 -3
BITMAP
0000
0000
0000
7FE0
7800
7800
7800
7FC0
7800
7800
7800
7FE0
0000
0000
0000
ENDCHAR

STARTCHAR F
ENCODING 70
SWIDTH 723 0
DWIDTH 12 0
BBX 12 15 0 -3
BITMAP
0000
0000
0000
3FE0
3C00
3C00
3C00
3FC0
3C00
3C00
3C00
3C00
0000
0000
0000
ENDCHAR

STARTCHAR G
ENCODING 71
SWIDTH 723 0
DWIDTH 12 0
BBX 12 15 0 -3
BITMAP
0000
0000
0000
3FC0
79E0
79E0
7800
7BE0
79E0
79E0
7FE0
3FE0
0000
0000
0000
ENDCHAR

STARTCHAR H
ENCODING 72
SWIDTH 723 0
DWIDTH 12 0
BBX 12 15 0 -3
BITMAP
0000
0000
0000
79E0
79E0
79E0
79E0
7FE0
79E0
79E0
79E0
79E0
0000
0000
0000
ENDCHAR

STARTCHAR I
ENCODING 73
SWIDTH 723 0
DWIDTH 12 0
BBX 12 15 0 -3
BITMAP
0000
0000
0000
7FE0
0F00
0F00
0F00
0F00
0F00
0F00
0F00
7FE0
0000
0000
0000
ENDCHAR

STARTCHAR J
ENCODING 74
SWIDTH 723 0
DWIDTH 12 0
BBX 12 15 0 -3
BITMAP
0000
0000
0000
07E0
01E0
01E0
01E0
01E0
01E0
79E0
79E0
3FC0
0000
0000
0000
ENDCHAR

STARTCHAR K
ENCODING 75
SWIDTH 723 0
DWIDTH 12 0
BBX 12 15 0 -3
BITMAP
0000
0000
0000
78E0
79E0
7BC0
7F80
7F00
7F80
7BC0
79E0
79E0
0000
0000
0000
ENDCHAR

STARTCHAR L
ENCODING 76
SWIDTH 723 0
DWIDTH 12 0
BBX 12 15 0 -3
BITMAP
0000
0000
0000
3C00
3C00
3C00
3C00
3C00
3C00
3C00
3C00
3FE0
0000
0000
0000
ENDCHAR

STARTCHAR M
ENCODING 77
SWIDTH 723 0
DWIDTH 12 0
BBX 12 15 0 -3
BITMAP
0000
0000
0000
79E0
7FE0
7FE0
7FE0
76E0
76E0
70E0
70E0
70E0
0000
0000
0000
ENDCHAR

STARTCHAR N
ENCODING 78
SWIDTH 723 0
DWIDTH 12 0
BBX 12 15 0 -3
BITMAP
0000
0000
0000
61E0
71E0
79E0
7FE0
7FE0
7FE0
79E0
78E0
7860
0000
0000
0000
ENDCHAR

STARTCHAR O
ENCODING 79
SWIDTH 723 0
DWIDTH 12 0
BBX 12 15 0 -3
BITMAP
0000
0000
0000
3FC0
79E0
79E0
79E0
79E0
79E0
79E0
79E0
3FC0
0000
0000
0000
ENDCHAR

STARTCHAR P
ENCODING 80
SWIDTH 723 0
DWIDTH 12 0
BBX 12 15 0 -3
BITMAP
0000
0000
0000
7FC0
79E0
79E0
79E0
79E0
79E0
7FC0
7800
7800
0000
0000
0000
ENDCHAR

STARTCHAR Q
ENCODING 81
SWIDTH 723 0
DWIDTH 12 0
BBX 12 15 0 -3
BITMAP
0000
0000
0000
3FC0
79E0
79E0
79E0
79E0
79E0
79E0
79E0
3FC0
01E0
0000
0000
ENDCHAR

STARTCHAR R
ENCODING 82
SWIDTH 723 0
DWIDTH 12 0
BBX 12 15 0 -3
BITMAP
0000
0000
0000
7FC0
79E0
79E0
79E0
79E0
7FC0
79E0
79E0
79E0
0000
0000
0000
ENDCHAR

STARTCHAR S
ENCODING 83
SWIDTH 723 0
DWIDTH 12 0
BBX 12 15 0 -3
BITMAP
0000
0000
0000
3FC0
79E0
7800
7FC0
3FE0
01E0
79E0
79E0
3FC0
0000
0000
0000
ENDCHAR

STARTCHAR T
ENCODING 84
SWIDTH 723 0
DWIDTH 12 0
BBX 12 15 0 -3
BITMAP
0000
0000
0000
7FE0
0F00
0F00
0F00
0F00
0F00
0F00
0F00
0F00
0000
0000
0000
ENDCHAR

STARTCHAR U
ENCODING 85
SWIDTH 723 0
DWIDTH 12 0
BBX 12 15 0 -3
BITMAP
0000
0000
0000
79E0
79E0
79E0
79E0
79E0
79E0
79E0
79E0
3FC0
0000
0000
0000
ENDCHAR

STARTCHAR V
ENCODING 86
SWIDTH 723 0
DWIDTH 12 0
BBX 12 15 0 -3
BITMAP
0000
0000
0000
79E0
79E0
79E0
79E0
79E0
39C0
1F80
0F00
0600
0000
0000
0000
ENDCHAR

STARTCHAR W
ENCODING 87
SWIDTH 723 0
DWIDTH 12 0
BBX 12 15 0 -3
BITMAP
0000
0000
0000
70E0
70E0
70E0
76E0
76E0
7FE0
7FE0
79E0
30C0
0000
0000
0000
ENDCHAR

STARTCHAR X
ENCODING 88
SWIDTH 723 0
DWIDTH 12 0
BBX 12 15 0 -3
BITMAP
0000
0000
0000
79E0
79E0
39C0
1F80
0F00
1F80
39C0
79E0
79E0
0000
0000
0000
ENDCHAR

STARTCHAR Y
ENCODING 89
SWIDTH 723 0
DWIDTH 12 0
BBX 12 15 0 -3
BITMAP
0000
0000
0000
79E0
79E0
79E0
39C0
1F80
0F00
0F00
0F00
0F00
0000
0000
0000
ENDCHAR

STARTCHAR Z
ENCODING 90
SWIDTH 723 0
DWIDTH 12 0
BBX 12 15 0 -3
BITMAP
0000
0000
0000
7FE0
01E0
03C0
0780
0F00
1E00
3C00
7800
7FE0
0000
0000
0000
ENDCHAR

STARTCHAR bracketleft
ENCODING 91
SWIDTH 723 0
DWIDTH 12 0
BBX 12 15 0 -3
BITMAP
0000
0000
3FC0
3C00
3C00
3C00
3C00
3C00
3C00
3C00
3C00
3FC0
0000
0000
0000
ENDCHAR

STARTCHAR backslash
ENCODING 92
SWIDTH 723 0
DWIDTH 12 0
BBX 12 15 0 -3
BITMAP
0000
0000
0000
F000
7800
3C00
1E00
0F00
0780
03C0
01E0
00F0
0000
0000
0000
ENDCHAR

STARTCHAR bracketright
ENCODING 93
SWIDTH 723 0
DWIDTH 12 0
BBX 12 15 0 -3
BITMAP
0000
0000
3FC0
03C0
03C0
03C0
03C0
03C0
03C0
03C0
03C0
3FC0
0000
0000
0000
ENDCHAR

STARTCHAR asciicircum
ENCODING 94
SWIDTH 723 0
DWIDTH 12 0
BBX 12 15 0 -3
BITMAP
0000
0000
1F00
3B80
71C0
0000
0000
0000
0000
0000
0000
0000
0000
0000
0000
ENDCHAR

STARTCHAR underscore
ENCODING 95
SWIDTH 723 0
DWIDTH 12 0
BBX 12 15 0 -3
BITMAP
0000
0000
0000
0000
0000
0000
0000
0000
0000
0000
7FE0
7FE0
0000
0000
0000
ENDCHAR

STARTCHAR quoteleft
ENCODING 96
SWIDTH 723 0
DWIDTH 12 0
BBX 12 15 0 -3
BITMAP
0000
0000
1E00
1E00
1C00
0F00
0000
0000
0000
0000
0000
0000
0000
0000
0000
ENDCHAR

STARTCHAR a
ENCODING 97
SWIDTH 723 0
DWIDTH 12 0
BBX 12 15 0 -3
BITMAP
0000
0000
0000
0000
0000
3FC0
01E0
3FE0
79E0
79E0
79E0
3FF0
0000
0000
0000
ENDCHAR

STARTCHAR b
ENCODING 98
SWIDTH 723 0
DWIDTH 12 0
BBX 12 15 0 -3
BITMAP
0000
0000
0000
7800
7800
7FC0
79E0
79E0
79E0
79E0
79E0
7FC0
0000
0000
0000
ENDCHAR

STARTCHAR c
ENCODING 99
SWIDTH 723 0
DWIDTH 12 0
BBX 12 15 0 -3
BITMAP
0000
0000
0000
0000
0000
3FC0
79E0
79E0
7800
79E0
79E0
3FC0
0000
0000
0000
ENDCHAR

STARTCHAR d
ENCODING 100
SWIDTH 723 0
DWIDTH 12 0
BBX 12 15 0 -3
BITMAP
0000
0000
0000
01E0
01E0
3FE0
79E0
79E0
79E0
79E0
79E0
3FE0
0000
0000
0000
ENDCHAR

STARTCHAR e
ENCODING 101
SWIDTH 723 0
DWIDTH 12 0
BBX 12 15 0 -3
BITMAP
0000
0000
0000
0000
0000
3FC0
79E0
79E0
7FE0
7800
79E0
3FC0
0000
0000
0000
ENDCHAR

STARTCHAR f
ENCODING 102
SWIDTH 723 0
DWIDTH 12 0
BBX 12 15 0 -3
BITMAP
0000
0000
0000
0FE0
1E00
1E00
7FC0
1E00
1E00
1E00
1E00
1E00
0000
0000
0000
ENDCHAR

STARTCHAR g
ENCODING 103
SWIDTH 723 0
DWIDTH 12 0
BBX 12 15 0 -3
BITMAP
0000
0000
0000
0000
0000
3FE0
79E0
79E0
79E0
79E0
3FE0
01E0
01C0
3F80
0000
ENDCHAR

STARTCHAR h
ENCODING 104
SWIDTH 723 0
DWIDTH 12 0
BBX 12 15 0 -3
BITMAP
0000
0000
0000
7800
7800
7FC0
79E0
79E0
79E0
79E0
79E0
79E0
0000
0000
0000
ENDCHAR

STARTCHAR i
ENCODING 105
SWIDTH 723 0
DWIDTH 12 0
BBX 12 15 0 -3
BITMAP
0000
0000
0000
0F00
0F00
0000
3F00
0F00
0F00
0F00
0F00
7FE0
0000
0000
0000
ENDCHAR

STARTCHAR j
ENCODING 106
SWIDTH 723 0
DWIDTH 12 0
BBX 12 15 0 -3
BITMAP
0000
0000
0000
01E0
01E0
0000
0FE0
01E0
01E0
01E0
01E0
01E0
3FC0
0000
0000
ENDCHAR

STARTCHAR k
ENCODING 107
SWIDTH 723 0
DWIDTH 12 0
BBX 12 15 0 -3
BITMAP
0000
0000
0000
7800
7800
7800
79C0
7B80
7F00
7F80
7BC0
79E0
0000
0000
0000
ENDCHAR

STARTCHAR l
ENCODING 108
SWIDTH 723 0
DWIDTH 12 0
BBX 12 15 0 -3
BITMAP
0000
0000
0000
3F00
0F00
0F00
0F00
0F00
0F00
0F00
0F00
7FE0
0000
0000
0000
ENDCHAR

STARTCHAR m
ENCODING 109
SWIDTH 723 0
DWIDTH 12 0
BBX 12 15 0 -3
BITMAP
0000
0000
0000
0000
0000
70E0
79E0
7FE0
7FE0
76E0
76E0
70E0
0000
0000
0000
ENDCHAR

STARTCHAR n
ENCODING 110
SWIDTH 723 0
DWIDTH 12 0
BBX 12 15 0 -3
BITMAP
0000
0000
0000
0000
0000
7BC0
7FE0
7DE0
79E0
79E0
79E0
79E0
0000
0000
0000
ENDCHAR

STARTCHAR o
ENCODING 111
SWIDTH 723 0
DWIDTH 12 0
BBX 12 15 0 -3
BITMAP
0000
0000
0000
0000
0000
3FC0
79E0
79E0
79E0
79E0
79E0
3FC0
0000
0000
0000
ENDCHAR

STARTCHAR p
ENCODING 112
SWIDTH 723 0
DWIDTH 12 0
BBX 12 15 0 -3
BITMAP
0000
0000
0000
0000
0000
7FC0
79E0
79E0
79E0
79E0
7FC0
7800
7800
7800
0000
ENDCHAR

STARTCHAR q
ENCODING 113
SWIDTH 723 0
DWIDTH 12 0
BBX 12 15 0 -3
BITMAP
0000
0000
0000
0000
0000
3FE0
79E0
79E0
79E0
79E0
3FE0
01E0
01E0
01E0
0000
ENDCHAR

STARTCHAR r
ENCODING 114
SWIDTH 723 0
DWIDTH 12 0
BBX 12 15 0 -3
BITMAP
0000
0000
0000
0000
0000
7BC0
7FE0
79E0
7800
7800
7800
7800
0000
0000
0000
ENDCHAR

STARTCHAR s
ENCODING 115
SWIDTH 723 0
DWIDTH 12 0
BBX 12 15 0 -3
BITMAP
0000
0000
0000
0000
0000
3FC0
79E0
7800
3FC0
01E0
79E0
3FC0
0000
0000
0000
ENDCHAR

STARTCHAR t
ENCODING 116
SWIDTH 723 0
DWIDTH 12 0
BBX 12 15 0 -3
BITMAP
0000
0000
0000
1E00
1E00
7FC0
1E00
1E00
1E00
1E00
1E00
0FE0
0000
0000
0000
ENDCHAR

STARTCHAR u
ENCODING 117
SWIDTH 723 0
DWIDTH 12 0
BBX 12 15 0 -3
BITMAP
0000
0000
0000
0000
0000
79E0
79E0
79E0
79E0
79E0
79E0
3FC0
0000
0000
0000
ENDCHAR

STARTCHAR v
ENCODING 118
SWIDTH 723 0
DWIDTH 12 0
BBX 12 15 0 -3
BITMAP
0000
0000
0000
0000
0000
79E0
79E0
79E0
39C0
1F80
0F00
0600
0000
0000
0000
ENDCHAR

STARTCHAR w
ENCODING 119
SWIDTH 723 0
DWIDTH 12 0
BBX 12 15 0 -3
BITMAP
0000
0000
0000
0000
0000
70E0
76E0
76E0
7FE0
7FE0
39C0
1080
0000
0000
0000
ENDCHAR

STARTCHAR x
ENCODING 120
SWIDTH 723 0
DWIDTH 12 0
BBX 12 15 0 -3
BITMAP
0000
0000
0000
0000
0000
79E0
39C0
1F80
1F80
3FC0
79E0
79E0
0000
0000
0000
ENDCHAR

STARTCHAR y
ENCODING 121
SWIDTH 723 0
DWIDTH 12 0
BBX 12 15 0 -3
BITMAP
0000
0000
0000
0000
0000
79E0
79E0
79E0
79E0
3FE0
01E0
01E0
3FC0
0000
0000
ENDCHAR

STARTCHAR z
ENCODING 122
SWIDTH 723 0
DWIDTH 12 0
BBX 12 15 0 -3
BITMAP
0000
0000
0000
0000
0000
7FE0
03C0
0780
0F00
1E00
3C00
7FE0
0000
0000
0000
ENDCHAR

STARTCHAR braceleft
ENCODING 123
SWIDTH 723 0
DWIDTH 12 0
BBX 12 15 0 -3
BITMAP
0000
0000
0000
0F80
1E00
1E00
0F00
7E00
0F00
1E00
1E00
1E00
0F80
0000
0000
ENDCHAR

STARTCHAR bar
ENCODING 124
SWIDTH 723 0
DWIDTH 12 0
BBX 12 15 0 -3
BITMAP
0000
0000
1E00
1E00
1E00
1E00
1E00
1E00
1E00
1E00
1E00
1E00
0000
0000
0000
ENDCHAR

STARTCHAR braceright
ENCODING 125
SWIDTH 723 0
DWIDTH 12 0
BBX 12 15 0 -3
BITMAP
0000
0000
0000
3E00
0F00
0F00
1E00
0FC0
1E00
0F00
0F00
0F00
3E00
0000
0000
ENDCHAR

STARTCHAR asciitilde
ENCODING 126
SWIDTH 723 0
DWIDTH 12 0
BBX 12 15 0 -3
BITMAP
0000
0000
0000
0000
0000
0000
3C60
7FE0
63C0
0000
0000
0000
0000
0000
0000
ENDCHAR

STARTCHAR space
ENCODING 160
SWIDTH 723 0
DWIDTH 12 0
BBX 12 15 0 -3
BITMAP
0000
0000
0000
0000
0000
0000
0000
0000
0000
0000
0000
0000
0000
0000
0000
ENDCHAR

STARTCHAR afii10023
ENCODING 161
SWIDTH 723 0
DWIDTH 12 0
BBX 12 15 0 -3
BITMAP
79E0
79E0
0000
7FE0
7800
7800
7800
7FC0
7800
7800
7800
7FE0
0000
0000
0000
ENDCHAR

STARTCHAR afii10051
ENCODING 162
SWIDTH 723 0
DWIDTH 12 0
BBX 12 15 0 -3
BITMAP
0000
0000
0000
FFC0
1C00
1C00
1C00
1DE0
1E70
1C70
1CF0
1CE0
0000
0000
0000
ENDCHAR

STARTCHAR afii10052
ENCODING 163
SWIDTH 723 0
DWIDTH 12 0
BBX 12 15 0 -3
BITMAP
0380
0700
0000
3FE0
3C00
3C00
3C00
3C00
3C00
3C00
3C00
3C00
0000
0000
0000
ENDCHAR

STARTCHAR afii10053
ENCODING 164
SWIDTH 723 0
DWIDTH 12 0
BBX 12 15 0 -3
BITMAP
0000
0000
0000
3FC0
79E0
79E0
7800
7F00
7800
79E0
79E0
3FC0
0000
0000
0000
ENDCHAR

STARTCHAR afii10054
ENCODING 165
SWIDTH 723 0
DWIDTH 12 0
BBX 12 15 0 -3
BITMAP
0000
0000
0000
3FC0
79E0
7800
7FC0
3FE0
01E0
79E0
79E0
3FC0
0000
0000
0000
ENDCHAR

STARTCHAR afii10055
ENCODING 166
SWIDTH 723 0
DWIDTH 12 0
BBX 12 15 0 -3
BITMAP
0000
0000
0000
7FE0
0F00
0F00
0F00
0F00
0F00
0F00
0F00
7FE0
0000
0000
0000
ENDCHAR

STARTCHAR afii10056
ENCODING 167
SWIDTH 723 0
DWIDTH 12 0
BBX 12 15 0 -3
BITMAP
79E0
79E0
0000
7FE0
0F00
0F00
0F00
0F00
0F00
0F00
0F00
7FE0
0000
0000
0000
ENDCHAR

STARTCHAR afii10057
ENCODING 168
SWIDTH 723 0
DWIDTH 12 0
BBX 12 15 0 -3
BITMAP
0000
0000
0000
07E0
01E0
01E0
01E0
01E0
01E0
79E0
79E0
3FC0
0000
0000
0000
ENDCHAR

STARTCHAR afii10058
ENCODING 169
SWIDTH 723 0
DWIDTH 12 0
BBX 12 15 0 -3
BITMAP
0000
0000
0000
7F80
7380
7380
7380
73E0
73B0
73B0
F3B0
E3E0
0000
0000
0000
ENDCHAR

STARTCHAR afii10059
ENCODING 170
SWIDTH 723 0
DWIDTH 12 0
BBX 12 15 0 -3
BITMAP
0000
0000
0000
E700
E700
E700
E700
FFE0
E730
E730
E730
E7E0
0000
0000
0000
ENDCHAR

STARTCHAR afii10060
ENCODING 171
SWIDTH 723 0
DWIDTH 12 0
BBX 12 15 0 -3
BITMAP
0000
0000
0000
FF80
3C00
3C00
3C00
3DE0
3FF0
3C70
3C70
3C70
0000
0000
0000
ENDCHAR

STARTCHAR afii10061
ENCODING 172
SWIDTH 723 0
DWIDTH 12 0
BBX 12 15 0 -3
BITMAP
0380
0700
0000
78E0
79E0
7980
7B00
7E00
7B00
7B80
79C0
78F0
0000
0000
0000
ENDCHAR

STARTCHAR hyphen
ENCODING 173
SWIDTH 723 0
DWIDTH 12 0
BBX 12 15 0 -3
BITMAP
0000
0000
0000
0000
0000
0000
0000
7FC0
7FC0
0000
0000
0000
0000
0000
0000
ENDCHAR

STARTCHAR afii10062
ENCODING 174
SWIDTH 723 0
DWIDTH 12 0
BBX 12 15 0 -3
BITMAP
0000
1980
0F00
0000
79E0
79E0
79E0
79E0
3FE0
01E0
01E0
3FC0
0000
0000
0000
ENDCHAR

STARTCHAR afii10145
ENCODING 175
SWIDTH 723 0
DWIDTH 12 0
BBX 12 15 0 -3
BITMAP
0000
0000
0000
79E0
79E0
79E0
79E0
79E0
79E0
79E0
79E0
7FE0
0600
0600
0600
ENDCHAR

STARTCHAR afii10017
ENCODING 176
SWIDTH 723 0
DWIDTH 12 0
BBX 12 15 0 -3
BITMAP
0000
0000
0000
0F00
3FC0
79E0
79E0
79E0
7FE0
79E0
79E0
79E0
0000
0000
0000
ENDCHAR

STARTCHAR afii10018
ENCODING 177
SWIDTH 723 0
DWIDTH 12 0
BBX 12 15 0 -3
BITMAP
0000
0000
0000
7FC0
7800
7800
7800
7FC0
79E0
79E0
79E0
7FC0
0000
0000
0000
ENDCHAR

STARTCHAR afii10019
ENCODING 178
SWIDTH 723 0
DWIDTH 12 0
BBX 12 15 0 -3
BITMAP
0000
0000
0000
7FC0
79E0
79E0
79E0
7FC0
79E0
79E0
79E0
7FC0
0000
0000
0000
ENDCHAR

STARTCHAR afii10020
ENCODING 179
SWIDTH 723 0
DWIDTH 12 0
BBX 12 15 0 -3
BITMAP
0000
0000
0000
3FE0
3C00
3C00
3C00
3C00
3C00
3C00
3C00
3C00
0000
0000
0000
ENDCHAR

STARTCHAR afii10021
ENCODING 180
SWIDTH 723 0
DWIDTH 12 0
BBX 12 15 0 -3
BITMAP
0000
0000
0000
3FC0
3FC0
39C0
39C0
39C0
39C0
39C0
7FC0
7FE0
E0E0
E0E0
0000
ENDCHAR

STARTCHAR afii10022
ENCODING 181
SWIDTH 723 0
DWIDTH 12 0
BBX 12 15 0 -3
BITMAP
0000
0000
0000
7FE0
7800
7800
7800
7FC0
7800
7800
7800
7FE0
0000
0000
0000
ENDCHAR

STARTCHAR afii10024
ENCODING 182
SWIDTH 723 0
DWIDTH 12 0
BBX 12 15 0 -3
BITMAP
0000
0000
0000
C630
E670
36C0
1F80
1F80
3FC0
36C0
6660
E670
0000
0000
0000
ENDCHAR

STARTCHAR afii10025
ENCODING 183
SWIDTH 723 0
DWIDTH 12 0
BBX 12 15 0 -3
BITMAP
0000
0000
0000
3FC0
79E0
79E0
01E0
07C0
01E0
79E0
79E0
3FC0
0000
0000
0000
ENDCHAR

STARTCHAR afii10026
ENCODING 184
SWIDTH 723 0
DWIDTH 12 0
BBX 12 15 0 -3
BITMAP
0000
0000
0000
7860
78E0
79E0
7FE0
7FE0
7FE0
79E0
71E0
61E0
0000
0000
0000
ENDCHAR

STARTCHAR afii10027
ENCODING 185
SWIDTH 723 0
DWIDTH 12 0
BBX 12 15 0 -3
BITMAP
1980
0F00
0000
7860
78E0
79E0
7FE0
7FE0
7FE0
79E0
71E0
61E0
0000
0000
0000
ENDCHAR

STARTCHAR afii10028
ENCODING 186
SWIDTH 723 0
DWIDTH 12 0
BBX 12 15 0 -3
BITMAP
0000
0000
0000
78E0
79E0
7980
7B00
7E00
7B00
7B80
79C0
78F0
0000
0000
0000
ENDCHAR

STARTCHAR afii10029
ENCODING 187
SWIDTH 723 0
DWIDTH 12 0
BBX 12 15 0 -3
BITMAP
0000
0000
0000
7FE0
79E0
79E0
79E0
79E0
79E0
79E0
F9E0
F1E0
0000
0000
0000
ENDCHAR

STARTCHAR afii10030
ENCODING 188
SWIDTH 723 0
DWIDTH 12 0
BBX 12 15 0 -3
BITMAP
0000
0000
0000
79E0
7FE0
7FE0
7FE0
76E0
76E0
70E0
70E0
70E0
0000
0000
0000
ENDCHAR

STARTCHAR afii10031
ENCODING 189
SWIDTH 723 0
DWIDTH 12 0
BBX 12 15 0 -3
BITMAP
0000
0000
0000
79E0
79E0
79E0
79E0
7FE0
79E0
79E0
79E0
79E0
0000
0000
0000
ENDCHAR

STARTCHAR afii10032
ENCODING 190
SWIDTH 723 0
DWIDTH 12 0
BBX 12 15 0 -3
BITMAP
0000
0000
0000
3FC0
79E0
79E0
79E0
79E0
79E0
79E0
79E0
3FC0
0000
0000
0000
ENDCHAR

STARTCHAR afii10033
ENCODING 191
SWIDTH 723 0
DWIDTH 12 0
BBX 12 15 0 -3
BITMAP
0000
0000
0000
7FE0
79E0
79E0
79E0
79E0
79E0
79E0
79E0
79E0
0000
0000
0000
ENDCHAR

STARTCHAR afii10034
ENCODING 192
SWIDTH 723 0
DWIDTH 12 0
BBX 12 15 0 -3
BITMAP
0000
0000
0000
7FC0
79E0
79E0
79E0
79E0
79E0
7FC0
7800
7800
0000
0000
0000
ENDCHAR

STARTCHAR afii10035
ENCODING 193
SWIDTH 723 0
DWIDTH 12 0
BBX 12 15 0 -3
BITMAP
0000
0000
0000
3FC0
79E0
79E0
7800
7800
7800
79E0
79E0
3FC0
0000
0000
0000
ENDCHAR

STARTCHAR afii10036
ENCODING 194
SWIDTH 723 0
DWIDTH 12 0
BBX 12 15 0 -3
BITMAP
0000
0000
0000
7FE0
0F00
0F00
0F00
0F00
0F00
0F00
0F00
0F00
0000
0000
0000
ENDCHAR

STARTCHAR afii10037
ENCODING 195
SWIDTH 723 0
DWIDTH 12 0
BBX 12 15 0 -3
BITMAP
0000
0000
0000
0000
79E0
79E0
79E0
79E0
3FE0
01E0
01E0
3FC0
0000
0000
0000
ENDCHAR

STARTCHAR afii10038
ENCODING 196
SWIDTH 723 0
DWIDTH 12 0
BBX 12 15 0 -3
BITMAP
0000
0000
0000
0F00
0F00
7FE0
EF70
EF70
EF70
7FE0
0F00
0F00
0000
0000
0000
ENDCHAR

STARTCHAR afii10039
ENCODING 197
SWIDTH 723 0
DWIDTH 12 0
BBX 12 15 0 -3
BITMAP
0000
0000
0000
79E0
79E0
39C0
1F80
0F00
1F80
39C0
79E0
79E0
0000
0000
0000
ENDCHAR

STARTCHAR afii10040
ENCODING 198
SWIDTH 723 0
DWIDTH 12 0
BBX 12 15 0 -3
BITMAP
0000
0000
0000
79E0
79E0
79E0
79E0
79E0
79E0
79E0
79E0
7FF0
0070
0070
0070
ENDCHAR

STARTCHAR afii10041
ENCODING 199
SWIDTH 723 0
DWIDTH 12 0
BBX 12 15 0 -3
BITMAP
0000
0000
0000
71E0
71E0
71E0
7FE0
3DE0
01E0
01E0
01E0
01E0
0000
0000
0000
ENDCHAR

STARTCHAR afii10042
ENCODING 200
SWIDTH 723 0
DWIDTH 12 0
BBX 12 15 0 -3
BITMAP
0000
0000
0000
EEE0
EEE0
EEE0
EEE0
EEE0
EEE0
EEE0
EEE0
FFE0
0000
0000
0000
ENDCHAR

STARTCHAR afii10043
ENCODING 201
SWIDTH 723 0
DWIDTH 12 0
BBX 12 15 0 -3
BITMAP
0000
0000
0000
EEE0
EEE0
EEE0
EEE0
EEE0
EEE0
EEE0
EEE0
FFF0
0070
0070
0070
ENDCHAR

STARTCHAR afii10044
ENCODING 202
SWIDTH 723 0
DWIDTH 12 0
BBX 12 15 0 -3
BITMAP
0000
0000
0000
FC00
3C00
3C00
3C00
3FE0
3CF0
3CF0
3CF0
3FE0
0000
0000
0000
ENDCHAR

STARTCHAR afii10045
ENCODING 203
SWIDTH 723 0
DWIDTH 12 0
BBX 12 15 0 -3
BITMAP
0000
0000
0000
E070
E070
E070
E070
FE70
E770
E770
E770
FE70
0000
0000
0000
ENDCHAR

STARTCHAR afii10046
ENCODING 204
SWIDTH 723 0
DWIDTH 12 0
BBX 12 15 0 -3
BITMAP
0000
0000
0000
7800
7800
7800
7800
7FC0
79E0
79E0
79E0
7FC0
0000
0000
0000
ENDCHAR

STARTCHAR afii10047
ENCODING 205
SWIDTH 723 0
DWIDTH 12 0
BBX 12 15 0 -3
BITMAP
0000
0000
0000
3FC0
79E0
79E0
01E0
0FE0
01E0
79E0
79E0
3FC0
0000
0000
0000
ENDCHAR

STARTCHAR afii10048
ENCODING 206
SWIDTH 723 0
DWIDTH 12 0
BBX 12 15 0 -3
BITMAP
0000
0000
0000
E3E0
E770
E770
E770
FF70
E770
E770
E770
E3E0
0000
0000
0000
ENDCHAR

STARTCHAR afii10049
ENCODING 207
SWIDTH 723 0
DWIDTH 12 0
BBX 12 15 0 -3
BITMAP
0000
0000
0000
3FE0
79E0
79E0
79E0
79E0
3FE0
79E0
79E0
79E0
0000
0000
0000
ENDCHAR

STARTCHAR afii10065
ENCODING 208
SWIDTH 723 0
DWIDTH 12 0
BBX 12 15 0 -3
BITMAP
0000
0000
0000
0000
0000
3FC0
01E0
3FE0
79E0
79E0
79E0
3FF0
0000
0000
0000
ENDCHAR

STARTCHAR afii10066
ENCODING 209
SWIDTH 723 0
DWIDTH 12 0
BBX 12 15 0 -3
BITMAP
0000
0000
07C0
1F80
3800
7FC0
79E0
79E0
79E0
79E0
79E0
3FC0
0000
0000
0000
ENDCHAR

STARTCHAR afii10067
ENCODING 210
SWIDTH 723 0
DWIDTH 12 0
BBX 12 15 0 -3
BITMAP
0000
0000
0000
0000
0000
7FC0
79E0
79E0
7FC0
79E0
79E0
7FC0
0000
0000
0000
ENDCHAR

STARTCHAR afii10068
ENCODING 211
SWIDTH 723 0
DWIDTH 12 0
BBX 12 15 0 -3
BITMAP
0000
0000
0000
0000
0000
7FC0
7800
7800
7800
7800
7800
7800
0000
0000
0000
ENDCHAR

STARTCHAR afii10069
ENCODING 212
SWIDTH 723 0
DWIDTH 12 0
BBX 12 15 0 -3
BITMAP
0000
0000
0000
0000
0000
3FE0
3DE0
3DE0
3DE0
3DE0
79E0
FFE0
E070
E070
E070
ENDCHAR

STARTCHAR afii10070
ENCODING 213
SWIDTH 723 0
DWIDTH 12 0
BBX 12 15 0 -3
BITMAP
0000
0000
0000
0000
0000
3FC0
79E0
79E0
7FE0
7800
79E0
3FC0
0000
0000
0000
ENDCHAR

STARTCHAR afii10072
ENCODING 214
SWIDTH 723 0
DWIDTH 12 0
BBX 12 15 0 -3
BITMAP
0000
0000
0000
0000
0000
E670
F6F0
1F80
1F80
3FC0
F6F0
E670
0000
0000
0000
ENDCHAR

STARTCHAR afii10073
ENCODING 215
SWIDTH 723 0
DWIDTH 12 0
BBX 12 15 0 -3
BITMAP
0000
0000
0000
0000
0000
3FC0
79E0
01E0
07C0
01E0
79E0
3FC0
0000
0000
0000
ENDCHAR

STARTCHAR afii10074
ENCODING 216
SWIDTH 723 0
DWIDTH 12 0
BBX 12 15 0 -3
BITMAP
0000
0000
0000
0000
0000
F0E0
F1E0
F3E0
F5E0
F9E0
F1E0
E1E0
0000
0000
0000
ENDCHAR

STARTCHAR afii10075
ENCODING 217
SWIDTH 723 0
DWIDTH 12 0
BBX 12 15 0 -3
BITMAP
0000
0000
1980
0F00
0000
F0E0
F1E0
F3E0
F5E0
F9E0
F1E0
E1E0
0000
0000
0000
ENDCHAR

STARTCHAR afii10076
ENCODING 218
SWIDTH 723 0
DWIDTH 12 0
BBX 12 15 0 -3
BITMAP
0000
0000
0000
0000
0000
78E0
79E0
7B00
7F00
7B80
79C0
78E0
0000
0000
0000
ENDCHAR

STARTCHAR afii10077
ENCODING 219
SWIDTH 723 0
DWIDTH 12 0
BBX 12 15 0 -3
BITMAP
0000
0000
0000
0000
0000
7FE0
79E0
79E0
79E0
79E0
F9E0
F1E0
0000
0000
0000
ENDCHAR

STARTCHAR afii10078
ENCODING 220
SWIDTH 723 0
DWIDTH 12 0
BBX 12 15 0 -3
BITMAP
0000
0000
0000
0000
0000
F0F0
F0F0
F9F0
FFF0
F6F0
F6F0
F0F0
0000
0000
0000
ENDCHAR

STARTCHAR afii10079
ENCODING 221
SWIDTH 723 0
DWIDTH 12 0
BBX 12 15 0 -3
BITMAP
0000
0000
0000
0000
0000
79E0
79E0
79E0
7FE0
79E0
79E0
79E0
0000
0000
0000
ENDCHAR

STARTCHAR afii10080
ENCODING 222
SWIDTH 723 0
DWIDTH 12 0
BBX 12 15 0 -3
BITMAP
0000
0000
0000
0000
0000
3FC0
79E0
79E0
79E0
79E0
79E0
3FC0
0000
0000
0000
ENDCHAR

STARTCHAR afii10081
ENCODING 223
SWIDTH 723 0
DWIDTH 12 0
BBX 12 15 0 -3
BITMAP
0000
0000
0000
0000
0000
7FE0
79E0
79E0
79E0
79E0
79E0
79E0
0000
0000
0000
ENDCHAR

STARTCHAR afii10082
ENCODING 224
SWIDTH 723 0
DWIDTH 12 0
BBX 12 15 0 -3
BITMAP
0000
0000
0000
0000
0000
7FC0
79E0
79E0
79E0
79E0
7FC0
7800
7800
7800
0000
ENDCHAR

STARTCHAR afii10083
ENCODING 225
SWIDTH 723 0
DWIDTH 12 0
BBX 12 15 0 -3
BITMAP
0000
0000
0000
0000
0000
3FC0
79E0
79E0
7800
79E0
79E0
3FC0
0000
0000
0000
ENDCHAR

STARTCHAR afii10084
ENCODING 226
SWIDTH 723 0
DWIDTH 12 0
BBX 12 15 0 -3
BITMAP
0000
0000
0000
0000
0000
7FE0
0F00
0F00
0F00
0F00
0F00
0F00
0000
0000
0000
ENDCHAR

STARTCHAR afii10085
ENCODING 227
SWIDTH 723 0
DWIDTH 12 0
BBX 12 15 0 -3
BITMAP
0000
0000
0000
0000
0000
79E0
79E0
79E0
79E0
3FE0
01E0
01E0
3FC0
0000
0000
ENDCHAR

STARTCHAR afii10086
ENCODING 228
SWIDTH 723 0
DWIDTH 12 0
BBX 12 15 0 -3
BITMAP
0000
0000
0000
0600
0600
3FC0
6660
6660
6660
6660
6660
3FC0
0600
0600
0000
ENDCHAR

STARTCHAR afii10087
ENCODING 229
SWIDTH 723 0
DWIDTH 12 0
BBX 12 15 0 -3
BITMAP
0000
0000
0000
0000
0000
79E0
39C0
1F80
1F80
3FC0
79E0
79E0
0000
0000
0000
ENDCHAR

STARTCHAR afii10088
ENCODING 230
SWIDTH 723 0
DWIDTH 12 0
BBX 12 15 0 -3
BITMAP
0000
0000
0000
0000
0000
79E0
79E0
79E0
79E0
79E0
79E0
7FF0
0070
0070
0070
ENDCHAR

STARTCHAR afii10089
ENCODING 231
SWIDTH 723 0
DWIDTH 12 0
BBX 12 15 0 -3
BITMAP
0000
0000
0000
0000
0000
79E0
79E0
79E0
7BE0
3DE0
01E0
01E0
0000
0000
0000
ENDCHAR

STARTCHAR afii10090
ENCODING 232
SWIDTH 723 0
DWIDTH 12 0
BBX 12 15 0 -3
BITMAP
0000
0000
0000
0000
0000
EEE0
EEE0
EEE0
EEE0
EEE0
EEE0
FFE0
0000
0000
0000
ENDCHAR

STARTCHAR afii10091
ENCODING 233
SWIDTH 723 0
DWIDTH 12 0
BBX 12 15 0 -3
BITMAP
0000
0000
0000
0000
0000
EEE0
EEE0
EEE0
EEE0
EEE0
EEE0
FFF0
0070
0070
0000
ENDCHAR

STARTCHAR afii10092
ENCODING 234
SWIDTH 723 0
DWIDTH 12 0
BBX 12 15 0 -3
BITMAP
0000
0000
0000
0000
0000
FC00
3C00
3C00
3FC0
3CE0
3CE0
3FC0
0000
0000
0000
ENDCHAR

STARTCHAR afii10093
ENCODING 235
SWIDTH 723 0
DWIDTH 12 0
BBX 12 15 0 -3
BITMAP
0000
0000
0000
0000
0000
E070
E070
E070
FE70
E770
E770
FE70
0000
0000
0000
ENDCHAR

STARTCHAR afii10094
ENCODING 236
SWIDTH 723 0
DWIDTH 12 0
BBX 12 15 0 -3
BITMAP
0000
0000
0000
0000
0000
3C00
3C00
3C00
3FC0
3CE0
3CE0
3FC0
0000
0000
0000
ENDCHAR

STARTCHAR afii10095
ENCODING 237
SWIDTH 723 0
DWIDTH 12 0
BBX 12 15 0 -3
BITMAP
0000
0000
0000
0000
0000
3FC0
79E0
01E0
07E0
01E0
79E0
3FC0
0000
0000
0000
ENDCHAR

STARTCHAR afii10096
ENCODING 238
SWIDTH 723 0
DWIDTH 12 0
BBX 12 15 0 -3
BITMAP
0000
0000
0000
0000
0000
73E0
7770
7770
7F70
7770
7770
73E0
0000
0000
0000
ENDCHAR

STARTCHAR afii10097
ENCODING 239
SWIDTH 723 0
DWIDTH 12 0
BBX 12 15 0 -3
BITMAP
0000
0000
0000
0000
0000
3FE0
79E0
79E0
3FE0
1DE0
39E0
71E0
0000
0000
0000
ENDCHAR

STARTCHAR afii61352
ENCODING 240
SWIDTH 723 0
DWIDTH 12 0
BBX 12 15 0 -3
BITMAP
0000
0000
0000
C700
E760
FFF0
FF90
FFF0
FF60
EF00
E7F0
E300
0000
0000
0000
ENDCHAR

STARTCHAR afii10071
ENCODING 241
SWIDTH 723 0
DWIDTH 12 0
BBX 12 15 0 -3
BITMAP
0000
0000
79E0
79E0
0000
3FC0
79E0
79E0
7FE0
7800
79E0
3FC0
0000
0000
0000
ENDCHAR

STARTCHAR afii10099
ENCODING 242
SWIDTH 723 0
DWIDTH 12 0
BBX 12 15 0 -3
BITMAP
0000
0000
0000
7800
FF00
7800
7BC0
7DE0
79E0
79E0
79E0
79E0
01E0
03E0
03C0
ENDCHAR

STARTCHAR afii10100
ENCODING 243
SWIDTH 723 0
DWIDTH 12 0
BBX 12 15 0 -3
BITMAP
0000
0000
0700
0E00
0000
7FC0
7800
7800
7800
7800
7800
7800
0000
0000
0000
ENDCHAR

STARTCHAR afii10101
ENCODING 244
SWIDTH 723 0
DWIDTH 12 0
BBX 12 15 0 -3
BITMAP
0000
0000
0000
0000
0000
3FC0
79E0
7800
7E00
7800
79E0
3FC0
0000
0000
0000
ENDCHAR

STARTCHAR afii10102
ENCODING 245
SWIDTH 723 0
DWIDTH 12 0
BBX 12 15 0 -3
BITMAP
0000
0000
0000
0000
0000
3FC0
79E0
7800
3FC0
01E0
79E0
3FC0
0000
0000
0000
ENDCHAR

STARTCHAR afii10103
ENCODING 246
SWIDTH 723 0
DWIDTH 12 0
BBX 12 15 0 -3
BITMAP
0000
0000
0000
0F00
0F00
0000
3F00
0F00
0F00
0F00
0F00
7FE0
0000
0000
0000
ENDCHAR

STARTCHAR afii10104
ENCODING 247
SWIDTH 723 0
DWIDTH 12 0
BBX 12 15 0 -3
BITMAP
0000
0000
0000
79E0
79E0
0000
3F00
0F00
0F00
0F00
0F00
7FE0
0000
0000
0000
ENDCHAR

STARTCHAR afii10105
ENCODING 248
SWIDTH 723 0
DWIDTH 12 0
BBX 12 15 0 -3
BITMAP
0000
0000
0000
01E0
01E0
0000
0FE0
01E0
01E0
01E0
01E0
01E0
3FC0
0000
0000
ENDCHAR

STARTCHAR afii10106
ENCODING 249
SWIDTH 723 0
DWIDTH 12 0
BBX 12 15 0 -3
BITMAP
0000
0000
0000
0000
0000
7F00
7700
7700
77E0
7770
F770
E7E0
0000
0000
0000
ENDCHAR

STARTCHAR afii10107
ENCODING 250
SWIDTH 723 0
DWIDTH 12 0
BBX 12 15 0 -3
BITMAP
0000
0000
0000
0000
0000
E700
E700
E700
FFE0
E770
E770
E7E0
0000
0000
0000
ENDCHAR

STARTCHAR afii10108
ENCODING 251
SWIDTH 723 0
DWIDTH 12 0
BBX 12 15 0 -3
BITMAP
0000
0000
0000
7800
FF00
7800
7BC0
7DE0
79E0
79E0
79E0
79E0
0000
0000
0000
ENDCHAR

STARTCHAR afii10109
ENCODING 252
SWIDTH 723 0
DWIDTH 12 0
BBX 12 15 0 -3
BITMAP
0000
0000
0780
0F00
0000
78E0
79E0
7B00
7F00
7B80
79C0
78E0
0000
0000
0000
ENDCHAR

STARTCHAR section
ENCODING 253
SWIDTH 723 0
DWIDTH 12 0
BBX 12 15 0 -3
BITMAP
0000
0000
3FC0
79E0
79E0
7C00
3F80
30C0
1FC0
03E0
79E0
79E0
3FC0
0000
0000
ENDCHAR

STARTCHAR afii10110
ENCODING 254
SWIDTH 723 0
DWIDTH 12 0
BBX 12 15 0 -3
BITMAP
0000
0000
1980
0F00
0000
79E0
79E0
79E0
79E0
3FE0
01E0
01E0
3FC0
0000
0000
ENDCHAR

STARTCHAR afii10193
ENCODING 255
SWIDTH 723 0
DWIDTH 12 0
BBX 12 15 0 -3
BITMAP
0000
0000
0000
0000
0000
79E0
79E0
79E0
79E0
79E0
79E0
7FE0
0600
0600
0000
ENDCHAR
ENDFONT
